<svg width="24" height="24" viewBox="0 0 24 24" fill="none" xmlns="http://www.w3.org/2000/svg">
<path d="M19.125 21.75H4.875C3.9805 21.748 3.12321 21.3918 2.4907 20.7593C1.8582 20.1268 1.50198 19.2695 1.5 18.375V6.75C1.5 6.55109 1.57902 6.36032 1.71967 6.21967C1.86032 6.07902 2.05109 6 2.25 6C2.44891 6 2.63968 6.07902 2.78033 6.21967C2.78415 6.22349 2.78793 6.22736 2.79167 6.23125C2.7954 6.22736 2.79918 6.22349 2.803 6.21967C2.94366 6.07902 3.13442 6 3.33333 6H19.125C20.0195 6.00198 20.8768 6.3582 21.5093 6.9907C22.1418 7.62321 22.498 8.4805 22.5 9.375V18.375C22.498 19.2695 22.1418 20.1268 21.5093 20.7593C20.8768 21.3918 20.0195 21.748 19.125 21.75Z" fill="white"/>
<path d="M2.25 7.68903C2.05109 7.68903 1.86032 7.61001 1.71967 7.46936C1.57902 7.3287 1.5 7.13794 1.5 6.93903C1.50301 6.13459 1.79582 5.35818 2.32477 4.7521C2.85372 4.14601 3.58337 3.75085 4.38 3.63902L15.75 2.09402C16.2189 2.03318 16.6954 2.07313 17.1477 2.2112C17.5999 2.34927 18.0175 2.58228 18.3724 2.89466C18.7274 3.20704 19.0116 3.59159 19.2061 4.0226C19.4005 4.45362 19.5007 4.92118 19.5 5.39403V6.18902C19.5 6.38794 19.421 6.5787 19.2803 6.71936C19.1397 6.86001 18.9489 6.93903 18.75 6.93903C18.5511 6.93903 18.3603 6.86001 18.2197 6.71936C18.079 6.5787 18 6.38794 18 6.18902V5.39403C18.0012 5.13283 17.9462 4.87443 17.8388 4.63633C17.7314 4.39823 17.5741 4.18601 17.3775 4.01402C17.1792 3.84324 16.9471 3.71622 16.6964 3.64127C16.4457 3.56631 16.182 3.5451 15.9225 3.57902L4.5825 5.13153C4.14506 5.19123 3.74395 5.40707 3.45313 5.73924C3.16231 6.07142 3.00137 6.49753 3 6.93903C3 7.13794 2.92098 7.3287 2.78033 7.46936C2.63968 7.61001 2.44891 7.68903 2.25 7.68903Z" fill="white"/>
<path d="M12.8776 9.97656V10.5466C13.207 10.6196 13.5162 10.7643 13.7832 10.9704C14.0503 11.1765 14.2686 11.439 14.4226 11.7391C14.5072 11.9054 14.5703 12.0818 14.6101 12.2641L12.8326 12.7516C12.8444 12.5934 12.8057 12.4357 12.7221 12.3009C12.6386 12.1662 12.5145 12.0614 12.3676 12.0016C12.2633 11.957 12.1511 11.9341 12.0376 11.9341C11.8974 11.9163 11.755 11.9345 11.6238 11.987C11.4926 12.0395 11.3769 12.1245 11.2876 12.2341C11.2341 12.2944 11.2024 12.371 11.1976 12.4516C11.1976 12.6841 11.3851 12.8641 11.7601 12.9841C11.9758 13.0571 12.1963 13.1147 12.4201 13.1566C12.9432 13.2571 13.4486 13.4339 13.9201 13.6816C14.1851 13.8527 14.4006 14.0902 14.5454 14.3705C14.6901 14.6507 14.759 14.964 14.7451 15.2791C14.7411 15.5891 14.6532 15.8922 14.4908 16.1563C14.3283 16.4204 14.0975 16.6356 13.8226 16.7791C13.5135 16.9674 13.177 17.1065 12.8251 17.1916V17.7841H11.0401V17.1841C10.7001 17.1165 10.3783 16.9772 10.0964 16.7755C9.81444 16.5737 9.57878 16.3141 9.40514 16.0141C9.3145 15.8462 9.24641 15.6672 9.20264 15.4816L10.9876 14.9641C10.9805 15.1305 11.029 15.2945 11.1254 15.4303C11.2218 15.5661 11.3607 15.6659 11.5201 15.7141C11.6597 15.7747 11.8105 15.8054 11.9626 15.8041C12.1249 15.8221 12.2891 15.8038 12.4435 15.7507C12.5978 15.6975 12.7384 15.6107 12.8551 15.4966C12.9021 15.4423 12.9287 15.3733 12.9301 15.3016C12.9301 15.0466 12.7426 14.8591 12.3676 14.7316L11.3701 14.4841C10.7836 14.3991 10.2368 14.1375 9.80264 13.7341C9.51667 13.3839 9.3698 12.9407 9.39014 12.4891C9.39356 12.1853 9.47547 11.8875 9.62791 11.6247C9.78034 11.3618 9.99813 11.1429 10.2601 10.9891C10.4945 10.835 10.7462 10.7091 11.0101 10.6141V9.97656M11.0101 9.97656H12.8476H11.0101Z" fill="#080808"/>
</svg>
