<svg width="24" height="24" viewBox="0 0 24 24" fill="none" xmlns="http://www.w3.org/2000/svg">
<path d="M19.125 21.75H4.875C3.9805 21.748 3.12321 21.3918 2.4907 20.7593C1.8582 20.1268 1.50198 19.2695 1.5 18.375V6.75C1.5 6.55109 1.57902 6.36032 1.71967 6.21967C1.86032 6.07902 2.05109 6 2.25 6C2.44891 6 2.63968 6.07902 2.78033 6.21967C2.92098 6.36032 3 6.55109 3 6.75V18.375C3 18.8723 3.19754 19.3492 3.54918 19.7008C3.90081 20.0525 4.37772 20.25 4.875 20.25H19.125C19.6223 20.25 20.0992 20.0525 20.4508 19.7008C20.8025 19.3492 21 18.8723 21 18.375V9.375C21 8.87772 20.8025 8.40081 20.4508 8.04918C20.0992 7.69754 19.6223 7.5 19.125 7.5H6C5.80109 7.5 5.61032 7.42098 5.46967 7.28033C5.32902 7.13968 5.25 6.94891 5.25 6.75C5.25 6.55109 5.32902 6.36032 5.46967 6.21967C5.61032 6.07902 5.80109 6 6 6H19.125C20.0195 6.00198 20.8768 6.3582 21.5093 6.9907C22.1418 7.62321 22.498 8.4805 22.5 9.375V18.375C22.498 19.2695 22.1418 20.1268 21.5093 20.7593C20.8768 21.3918 20.0195 21.748 19.125 21.75Z" fill="#B5B5B5"/>
<path d="M2.25 7.68707C2.05109 7.68707 1.86032 7.60805 1.71967 7.4674C1.57902 7.32675 1.5 7.13598 1.5 6.93707C1.50301 6.13264 1.79582 5.35623 2.32477 4.75014C2.85372 4.14406 3.58337 3.74889 4.38 3.63707L15.75 2.09207C16.2189 2.03123 16.6954 2.07118 17.1477 2.20925C17.5999 2.34732 18.0175 2.58033 18.3724 2.89271C18.7274 3.20508 19.0116 3.58963 19.2061 4.02065C19.4005 4.45167 19.5007 4.91922 19.5 5.39207V6.18707C19.5 6.38598 19.421 6.57675 19.2803 6.7174C19.1397 6.85805 18.9489 6.93707 18.75 6.93707C18.5511 6.93707 18.3603 6.85805 18.2197 6.7174C18.079 6.57675 18 6.38598 18 6.18707V5.39207C18.0012 5.13088 17.9462 4.87247 17.8388 4.63438C17.7314 4.39628 17.5741 4.18405 17.3775 4.01207C17.1792 3.84129 16.9471 3.71427 16.6964 3.63931C16.4457 3.56435 16.182 3.54315 15.9225 3.57707L4.5825 5.12957C4.14506 5.18928 3.74395 5.40512 3.45313 5.73729C3.16231 6.06947 3.00137 6.49558 3 6.93707C3 7.13598 2.92098 7.32675 2.78033 7.4674C2.63968 7.60805 2.44891 7.68707 2.25 7.68707Z" fill="#B5B5B5"/>
<path d="M12.8776 9.97461V10.5446C13.207 10.6176 13.5162 10.7623 13.7832 10.9684C14.0503 11.1746 14.2686 11.437 14.4226 11.7371C14.5072 11.9034 14.5703 12.0798 14.6101 12.2621L12.8326 12.7496C12.8444 12.5915 12.8057 12.4337 12.7221 12.299C12.6386 12.1642 12.5145 12.0594 12.3676 11.9996C12.2633 11.9551 12.1511 11.9321 12.0376 11.9321C11.8974 11.9143 11.755 11.9326 11.6238 11.985C11.4926 12.0375 11.3769 12.1226 11.2876 12.2321C11.2341 12.2925 11.2024 12.3691 11.1976 12.4496C11.1976 12.6821 11.3851 12.8621 11.7601 12.9821C11.9758 13.0551 12.1963 13.1128 12.4201 13.1546C12.9432 13.2551 13.4486 13.432 13.9201 13.6796C14.1851 13.8508 14.4006 14.0883 14.5454 14.3685C14.6901 14.6488 14.759 14.962 14.7451 15.2771C14.7411 15.5871 14.6532 15.8902 14.4908 16.1543C14.3283 16.4184 14.0975 16.6336 13.8226 16.7771C13.5135 16.9654 13.177 17.1046 12.8251 17.1896V17.7821H11.0401V17.1821C10.7001 17.1146 10.3783 16.9753 10.0964 16.7735C9.81444 16.5718 9.57878 16.3122 9.40514 16.0121C9.3145 15.8443 9.24641 15.6652 9.20264 15.4796L10.9876 14.9621C10.9805 15.1285 11.029 15.2925 11.1254 15.4283C11.2218 15.5641 11.3607 15.664 11.5201 15.7121C11.6597 15.7727 11.8105 15.8034 11.9626 15.8021C12.1249 15.8201 12.2891 15.8019 12.4435 15.7487C12.5978 15.6955 12.7384 15.6087 12.8551 15.4946C12.9021 15.4404 12.9287 15.3714 12.9301 15.2996C12.9301 15.0446 12.7426 14.8571 12.3676 14.7296L11.3701 14.4821C10.7836 14.3971 10.2368 14.1355 9.80264 13.7321C9.51667 13.382 9.3698 12.9387 9.39014 12.4871C9.39356 12.1833 9.47547 11.8855 9.62791 11.6227C9.78034 11.3599 9.99813 11.1409 10.2601 10.9871C10.4945 10.833 10.7462 10.7071 11.0101 10.6121V9.97461M11.0101 9.97461H12.8476H11.0101Z" fill="#B5B5B5"/>
</svg>
