<svg width="24" height="24" viewBox="0 0 24 24" fill="none" xmlns="http://www.w3.org/2000/svg">
<path fill-rule="evenodd" clip-rule="evenodd" d="M23.0342 18.9838V11.3638C23.0342 10.2688 22.5557 9.2293 21.7247 8.5168C19.9772 7.0183 16.4417 3.9883 14.2247 2.0878C12.8207 0.884797 10.7477 0.884797 9.34368 2.0878L1.84368 8.5168C1.01268 9.2293 0.53418 10.2688 0.53418 11.3638V18.9838C0.53418 21.0553 2.21268 22.7338 4.28418 22.7338H19.2842C21.3557 22.7338 23.0342 21.0553 23.0342 18.9838ZM16.6592 16.3588C16.6592 14.9098 15.4847 13.7338 14.0342 13.7338C12.6872 13.7338 10.8812 13.7338 9.53418 13.7338C8.08368 13.7338 6.90918 14.9098 6.90918 16.3588C6.90918 17.8078 8.08368 18.9838 9.53418 18.9838H14.0342C15.4847 18.9838 16.6592 17.8078 16.6592 16.3588ZM15.1592 16.3588C15.1592 16.9798 14.6552 17.4838 14.0342 17.4838H9.53418C8.91318 17.4838 8.40918 16.9798 8.40918 16.3588C8.40918 15.7378 8.91318 15.2338 9.53418 15.2338H14.0342C14.6552 15.2338 15.1592 15.7378 15.1592 16.3588Z" fill="white"/>
</svg>
