<svg width="72" height="72" viewBox="0 0 72 72" fill="none" xmlns="http://www.w3.org/2000/svg">
<g clip-path="url(#clip0_465_8847)">
<g filter="url(#filter0_i_465_8847)">
<path d="M36.5762 22.5078H46.4771V23.3677H36.5762V29.1903H52.1768V15.899H52.8893V26.0947H58.3434V10.1992H42.7427V15.899H46.4771V16.808H41.932V10.1992H36.5762V22.5078Z" fill="url(#paint0_linear_465_8847)"/>
<path d="M36.5762 36.3392H46.477V37.1991H36.5762V49.5077H41.932V42.8989H46.477V43.8079H42.7427V49.5077H58.3434V33.6121H52.8893V43.8079H52.1768V30.5166H36.5762V36.3392Z" fill="url(#paint1_linear_465_8847)"/>
<path d="M35.4196 37.2245H25.5187V36.3646H35.4196V30.542H19.8189V43.8333H19.1064V33.6376H13.6523V49.5331H29.253V43.8333H25.5187V42.9243H30.0637V49.5331H35.4196V37.2245Z" fill="url(#paint2_linear_465_8847)"/>
<path d="M35.4196 23.3931H25.5187V22.5332H35.4196V10.2246H30.0638V16.8334H25.5187V15.9244H29.2531V10.2246H13.6523V26.1201H19.1065V15.9244H19.8189V29.2157H35.4196V23.3931Z" fill="url(#paint3_linear_465_8847)"/>
</g>
<path d="M35.4171 30.5464V36.3601H25.5162V37.2289H35.4171V49.5286H30.0702V42.9198H25.5162V43.8377H29.2505V49.5286H13.6587V33.642H19.104V43.8377H19.8253V30.5464H35.4171ZM52.1725 30.5219V43.8132H52.8938V33.6174H58.339V49.504H42.7472V43.8132H46.4816V42.8953H41.9276V49.504H36.5807V37.2044H46.4816V36.3356H36.5807V30.5219H52.1725ZM29.2505 10.2287V15.9196H25.5162V16.8374H30.0702V10.2287H35.4171V22.5284H25.5162V23.3972H35.4171V29.2108H19.8253V15.9196H19.104V26.1152H13.6588V10.2287H29.2505ZM41.9277 10.2041V16.8129H46.4816V15.895H42.7474V10.2041H58.3391V26.0907H52.8939V15.895H52.1725V29.1863H36.5808V23.3726H46.4816V22.5038H36.5808V10.2041H41.9277Z" stroke="url(#paint4_linear_465_8847)" stroke-width="0.00888887"/>
<path d="M3.08682 62.5665C2.6687 62.5665 2.29055 62.4743 1.95237 62.2899C1.62034 62.0992 1.35594 61.8195 1.15918 61.4505C0.968571 61.0816 0.873265 60.6205 0.873265 60.0671C0.873265 59.5137 0.971645 59.0525 1.16841 58.6836C1.37131 58.3147 1.63879 58.038 1.97082 57.8535C2.309 57.6691 2.681 57.5768 3.08682 57.5768C3.56642 57.5768 3.99068 57.6814 4.35961 57.8904C4.72853 58.0995 5.0206 58.3915 5.23581 58.7666C5.45101 59.1355 5.55862 59.569 5.55862 60.0671C5.55862 60.5651 5.45101 61.0017 5.23581 61.3768C5.0206 61.7518 4.72853 62.0439 4.35961 62.253C3.99068 62.462 3.56642 62.5665 3.08682 62.5665ZM0.495117 62.5112V55.6676H1.38054V58.9234L1.28831 60.0579L1.34365 61.1923V62.5112H0.495117ZM3.01303 61.7918C3.32662 61.7918 3.60639 61.7211 3.85234 61.5797C4.10443 61.4382 4.3012 61.2384 4.44262 60.9802C4.59019 60.7158 4.66397 60.4114 4.66397 60.0671C4.66397 59.7166 4.59019 59.4153 4.44262 59.1632C4.3012 58.905 4.10443 58.7051 3.85234 58.5637C3.60639 58.4223 3.32662 58.3516 3.01303 58.3516C2.70559 58.3516 2.42583 58.4223 2.17373 58.5637C1.92778 58.7051 1.73102 58.905 1.58345 59.1632C1.44203 59.4153 1.37131 59.7166 1.37131 60.0671C1.37131 60.4114 1.44203 60.7158 1.58345 60.9802C1.73102 61.2384 1.92778 61.4382 2.17373 61.5797C2.42583 61.7211 2.70559 61.7918 3.01303 61.7918Z" fill="#C0C0C0"/>
<path d="M8.95864 62.5665C8.43599 62.5665 7.97483 62.4589 7.57517 62.2437C7.18165 62.0285 6.87421 61.7334 6.65285 61.3583C6.43765 60.9832 6.33004 60.5528 6.33004 60.0671C6.33004 59.5813 6.43457 59.1509 6.64363 58.7758C6.85884 58.4008 7.1509 58.1087 7.51983 57.8996C7.8949 57.6844 8.31609 57.5768 8.7834 57.5768C9.25685 57.5768 9.67496 57.6814 10.0377 57.8904C10.4005 58.0995 10.6834 58.3946 10.8863 58.7758C11.0953 59.1509 11.1999 59.5905 11.1999 60.0947C11.1999 60.1316 11.1968 60.1747 11.1906 60.2239C11.1906 60.2731 11.1876 60.3192 11.1814 60.3622H7.02178V59.7258H10.7203L10.3606 59.9472C10.3667 59.6336 10.3021 59.3538 10.1669 59.1079C10.0316 58.8619 9.84406 58.6713 9.60425 58.536C9.3706 58.3946 9.09698 58.3239 8.7834 58.3239C8.47596 58.3239 8.20234 58.3946 7.96254 58.536C7.72274 58.6713 7.5352 58.865 7.39993 59.1171C7.26465 59.363 7.19702 59.6459 7.19702 59.9656V60.1132C7.19702 60.4391 7.2708 60.7311 7.41837 60.9894C7.57209 61.2415 7.78422 61.4382 8.05477 61.5797C8.32531 61.7211 8.63583 61.7918 8.9863 61.7918C9.2753 61.7918 9.53662 61.7426 9.77027 61.6442C10.0101 61.5459 10.2191 61.3983 10.3974 61.2015L10.8863 61.7734C10.6649 62.0316 10.3882 62.2284 10.0562 62.3636C9.7303 62.4989 9.36445 62.5665 8.95864 62.5665Z" fill="#C0C0C0"/>
<path d="M15.021 62.5665C14.6152 62.5665 14.2432 62.4743 13.905 62.2899C13.573 62.0992 13.3055 61.8195 13.1026 61.4505C12.9059 61.0816 12.8075 60.6205 12.8075 60.0671C12.8075 59.5137 12.9028 59.0525 13.0934 58.6836C13.2902 58.3147 13.5546 58.038 13.8866 57.8535C14.2248 57.6691 14.6029 57.5768 15.021 57.5768C15.5006 57.5768 15.9249 57.6814 16.2938 57.8904C16.6628 58.0995 16.9548 58.3915 17.17 58.7666C17.3852 59.1355 17.4928 59.569 17.4928 60.0671C17.4928 60.5651 17.3852 61.0017 17.17 61.3768C16.9548 61.7518 16.6628 62.0439 16.2938 62.253C15.9249 62.462 15.5006 62.5665 15.021 62.5665ZM12.4293 64.3005V57.6229H13.2779V58.9419L13.2225 60.0763L13.3148 61.2107V64.3005H12.4293ZM14.9473 61.7918C15.2608 61.7918 15.5406 61.7211 15.7866 61.5797C16.0387 61.4382 16.2354 61.2384 16.3768 60.9802C16.5244 60.7158 16.5982 60.4114 16.5982 60.0671C16.5982 59.7166 16.5244 59.4153 16.3768 59.1632C16.2354 58.905 16.0387 58.7051 15.7866 58.5637C15.5406 58.4223 15.2608 58.3516 14.9473 58.3516C14.6398 58.3516 14.3601 58.4223 14.108 58.5637C13.862 58.7051 13.6652 58.905 13.5177 59.1632C13.3763 59.4153 13.3055 59.7166 13.3055 60.0671C13.3055 60.4114 13.3763 60.7158 13.5177 60.9802C13.6652 61.2384 13.862 61.4382 14.108 61.5797C14.3601 61.7211 14.6398 61.7918 14.9473 61.7918Z" fill="#C0C0C0"/>
<path d="M21.7056 62.5112V61.4782L21.6595 61.2845V59.5229C21.6595 59.1478 21.5488 58.8588 21.3274 58.6559C21.1122 58.4469 20.7863 58.3424 20.3498 58.3424C20.0608 58.3424 19.7779 58.3915 19.5012 58.4899C19.2246 58.5822 18.9909 58.7082 18.8003 58.8681L18.4314 58.204C18.6835 58.0011 18.9848 57.8474 19.3352 57.7428C19.6919 57.6322 20.0639 57.5768 20.4512 57.5768C21.1214 57.5768 21.6379 57.7398 22.0007 58.0657C22.3635 58.3915 22.5449 58.8896 22.5449 59.5598V62.5112H21.7056ZM20.1008 62.5665C19.738 62.5665 19.4182 62.5051 19.1415 62.3821C18.871 62.2591 18.6619 62.09 18.5144 61.8748C18.3668 61.6535 18.293 61.4044 18.293 61.1277C18.293 60.8633 18.3545 60.6235 18.4775 60.4083C18.6066 60.1931 18.8126 60.021 19.0954 59.8918C19.3844 59.7627 19.7718 59.6982 20.2575 59.6982H21.807V60.3345H20.2944C19.8517 60.3345 19.5535 60.4083 19.3998 60.5559C19.2461 60.7035 19.1692 60.8818 19.1692 61.0908C19.1692 61.3306 19.2645 61.5243 19.4551 61.6719C19.6457 61.8133 19.9101 61.884 20.2483 61.884C20.5804 61.884 20.8693 61.8102 21.1153 61.6627C21.3674 61.5151 21.5488 61.2999 21.6595 61.0171L21.8347 61.6258C21.7179 61.9148 21.5119 62.1454 21.2168 62.3175C20.9216 62.4835 20.5496 62.5665 20.1008 62.5665Z" fill="#C0C0C0"/>
<path d="M24.3055 64.3558C24.0718 64.3558 23.8443 64.3159 23.623 64.2359C23.4016 64.1621 23.211 64.0515 23.0511 63.9039L23.4293 63.2398C23.5523 63.3567 23.6875 63.4458 23.8351 63.5073C23.9827 63.5688 24.1395 63.5995 24.3055 63.5995C24.5207 63.5995 24.699 63.5442 24.8404 63.4335C24.9819 63.3228 25.1141 63.1261 25.237 62.8432L25.5414 62.17L25.6336 62.0593L27.552 57.6229H28.419L26.0487 63C25.9072 63.3444 25.7474 63.6149 25.5691 63.8117C25.3969 64.0084 25.2063 64.1468 24.9972 64.2267C24.7882 64.3128 24.5576 64.3558 24.3055 64.3558ZM25.4676 62.668L23.2356 57.6229H24.1579L26.0579 61.9763L25.4676 62.668Z" fill="#C0C0C0"/>
<path d="M34.314 62.5665C33.8958 62.5665 33.5177 62.4743 33.1795 62.2899C32.8475 62.0992 32.5831 61.8195 32.3863 61.4505C32.1957 61.0816 32.1004 60.6205 32.1004 60.0671C32.1004 59.5137 32.1988 59.0525 32.3955 58.6836C32.5984 58.3147 32.8659 58.038 33.198 57.8535C33.5361 57.6691 33.9081 57.5768 34.314 57.5768C34.7936 57.5768 35.2178 57.6814 35.5867 57.8904C35.9557 58.0995 36.2477 58.3915 36.4629 58.7666C36.6781 59.1355 36.7858 59.569 36.7858 60.0671C36.7858 60.5651 36.6781 61.0017 36.4629 61.3768C36.2477 61.7518 35.9557 62.0439 35.5867 62.253C35.2178 62.462 34.7936 62.5665 34.314 62.5665ZM31.7223 62.5112V55.6676H32.6077V58.9234L32.5154 60.0579L32.5708 61.1923V62.5112H31.7223ZM34.2402 61.7918C34.5538 61.7918 34.8335 61.7211 35.0795 61.5797C35.3316 61.4382 35.5283 61.2384 35.6698 60.9802C35.8173 60.7158 35.8911 60.4114 35.8911 60.0671C35.8911 59.7166 35.8173 59.4153 35.6698 59.1632C35.5283 58.905 35.3316 58.7051 35.0795 58.5637C34.8335 58.4223 34.5538 58.3516 34.2402 58.3516C33.9327 58.3516 33.653 58.4223 33.4009 58.5637C33.1549 58.7051 32.9582 58.905 32.8106 59.1632C32.6692 59.4153 32.5984 59.7166 32.5984 60.0671C32.5984 60.4114 32.6692 60.7158 32.8106 60.9802C32.9582 61.2384 33.1549 61.4382 33.4009 61.5797C33.653 61.7211 33.9327 61.7918 34.2402 61.7918Z" fill="#C0C0C0"/>
<path d="M40.0659 62.5665C39.6478 62.5665 39.2788 62.4897 38.9591 62.336C38.6455 62.1822 38.3996 61.9486 38.2212 61.635C38.0491 61.3153 37.963 60.9156 37.963 60.436V57.6229H38.8484V60.3345C38.8484 60.8142 38.9622 61.1739 39.1897 61.4137C39.4233 61.6535 39.7492 61.7734 40.1673 61.7734C40.4748 61.7734 40.7422 61.7119 40.9697 61.5889C41.1972 61.4598 41.3725 61.2753 41.4955 61.0355C41.6184 60.7896 41.6799 60.4944 41.6799 60.1501V57.6229H42.5653V62.5112H41.726V61.1923L41.8644 61.5428C41.7045 61.8687 41.4647 62.1208 41.145 62.2991C40.8252 62.4774 40.4655 62.5665 40.0659 62.5665Z" fill="#C0C0C0"/>
<path d="M45.6529 62.5665C45.247 62.5665 44.8597 62.5112 44.4907 62.4005C44.128 62.2899 43.842 62.1546 43.633 61.9947L44.0019 61.2938C44.211 61.4352 44.4692 61.5551 44.7767 61.6535C45.0841 61.7518 45.3977 61.801 45.7174 61.801C46.1294 61.801 46.4245 61.7426 46.6028 61.6258C46.7873 61.509 46.8795 61.346 46.8795 61.137C46.8795 60.9832 46.8242 60.8633 46.7135 60.7773C46.6028 60.6912 46.4553 60.6266 46.2708 60.5836C46.0925 60.5405 45.8927 60.5036 45.6713 60.4729C45.4499 60.436 45.2286 60.393 45.0072 60.3438C44.7859 60.2884 44.583 60.2146 44.3985 60.1224C44.214 60.024 44.0665 59.8918 43.9558 59.7258C43.8451 59.5537 43.7898 59.3262 43.7898 59.0433C43.7898 58.7482 43.8728 58.4899 44.0388 58.2686C44.2048 58.0472 44.4385 57.8781 44.7398 57.7613C45.0472 57.6383 45.41 57.5768 45.8281 57.5768C46.1478 57.5768 46.4706 57.6168 46.7965 57.6967C47.1286 57.7705 47.3991 57.8781 47.6082 58.0195L47.23 58.7205C47.0087 58.5729 46.7781 58.4715 46.5383 58.4161C46.2985 58.3608 46.0587 58.3331 45.8189 58.3331C45.4315 58.3331 45.1425 58.3977 44.9519 58.5268C44.7613 58.6498 44.666 58.8097 44.666 59.0064C44.666 59.1724 44.7213 59.3016 44.832 59.3938C44.9488 59.4799 45.0964 59.5475 45.2747 59.5967C45.4592 59.6459 45.6621 59.6889 45.8834 59.7258C46.1048 59.7566 46.3261 59.7996 46.5475 59.8549C46.7689 59.9041 46.9687 59.9748 47.147 60.0671C47.3315 60.1593 47.479 60.2884 47.5897 60.4544C47.7065 60.6205 47.7649 60.8418 47.7649 61.1185C47.7649 61.4137 47.6789 61.6688 47.5067 61.884C47.3345 62.0992 47.0917 62.2683 46.7781 62.3913C46.4645 62.5081 46.0894 62.5665 45.6529 62.5665Z" fill="#C0C0C0"/>
<path d="M48.8715 62.5112V57.6229H49.7569V62.5112H48.8715ZM49.3142 56.6822C49.1421 56.6822 48.9976 56.6268 48.8807 56.5162C48.7701 56.4055 48.7147 56.2702 48.7147 56.1104C48.7147 55.9443 48.7701 55.806 48.8807 55.6953C48.9976 55.5846 49.1421 55.5293 49.3142 55.5293C49.4864 55.5293 49.6278 55.5846 49.7385 55.6953C49.8553 55.7998 49.9137 55.932 49.9137 56.0919C49.9137 56.2579 49.8584 56.3993 49.7477 56.5162C49.637 56.6268 49.4925 56.6822 49.3142 56.6822Z" fill="#C0C0C0"/>
<path d="M54.0576 57.5768C54.4573 57.5768 54.8078 57.6537 55.1091 57.8074C55.4165 57.9611 55.6563 58.1948 55.8285 58.5084C56.0007 58.822 56.0867 59.2185 56.0867 59.6982V62.5112H55.2013V59.7996C55.2013 59.3262 55.0845 58.9695 54.8508 58.7297C54.6233 58.4899 54.3005 58.37 53.8824 58.37C53.5688 58.37 53.2952 58.4315 53.0615 58.5545C52.8279 58.6775 52.6465 58.8588 52.5174 59.0986C52.3944 59.3384 52.3329 59.6367 52.3329 59.9933V62.5112H51.4475V57.6229H52.296V58.9419L52.1577 58.5914C52.3175 58.2716 52.5635 58.0226 52.8955 57.8443C53.2276 57.666 53.6149 57.5768 54.0576 57.5768Z" fill="#C0C0C0"/>
<path d="M59.902 62.5665C59.3794 62.5665 58.9182 62.4589 58.5185 62.2437C58.125 62.0285 57.8176 61.7334 57.5962 61.3583C57.381 60.9832 57.2734 60.5528 57.2734 60.0671C57.2734 59.5813 57.3779 59.1509 57.587 58.7758C57.8022 58.4008 58.0943 58.1087 58.4632 57.8996C58.8383 57.6844 59.2595 57.5768 59.7268 57.5768C60.2002 57.5768 60.6183 57.6814 60.9811 57.8904C61.3439 58.0995 61.6267 58.3946 61.8296 58.7758C62.0387 59.1509 62.1432 59.5905 62.1432 60.0947C62.1432 60.1316 62.1402 60.1747 62.134 60.2239C62.134 60.2731 62.1309 60.3192 62.1248 60.3622H57.9652V59.7258H61.6636L61.3039 59.9472C61.3101 59.6336 61.2455 59.3538 61.1102 59.1079C60.975 58.8619 60.7874 58.6713 60.5476 58.536C60.314 58.3946 60.0404 58.3239 59.7268 58.3239C59.4193 58.3239 59.1457 58.3946 58.9059 58.536C58.6661 58.6713 58.4786 58.865 58.3433 59.1171C58.208 59.363 58.1404 59.6459 58.1404 59.9656V60.1132C58.1404 60.4391 58.2142 60.7311 58.3617 60.9894C58.5155 61.2415 58.7276 61.4382 58.9981 61.5797C59.2687 61.7211 59.5792 61.7918 59.9297 61.7918C60.2187 61.7918 60.48 61.7426 60.7136 61.6442C60.9534 61.5459 61.1625 61.3983 61.3408 61.2015L61.8296 61.7734C61.6083 62.0316 61.3316 62.2284 60.9996 62.3636C60.6737 62.4989 60.3078 62.5665 59.902 62.5665Z" fill="#C0C0C0"/>
<path d="M64.7746 62.5665C64.3688 62.5665 63.9814 62.5112 63.6125 62.4005C63.2497 62.2899 62.9638 62.1546 62.7548 61.9947L63.1237 61.2938C63.3328 61.4352 63.591 61.5551 63.8984 61.6535C64.2059 61.7518 64.5195 61.801 64.8392 61.801C65.2512 61.801 65.5463 61.7426 65.7246 61.6258C65.9091 61.509 66.0013 61.346 66.0013 61.137C66.0013 60.9832 65.946 60.8633 65.8353 60.7773C65.7246 60.6912 65.577 60.6266 65.3926 60.5836C65.2143 60.5405 65.0144 60.5036 64.7931 60.4729C64.5717 60.436 64.3504 60.393 64.129 60.3438C63.9077 60.2884 63.7048 60.2146 63.5203 60.1224C63.3358 60.024 63.1883 59.8918 63.0776 59.7258C62.9669 59.5537 62.9116 59.3262 62.9116 59.0433C62.9116 58.7482 62.9946 58.4899 63.1606 58.2686C63.3266 58.0472 63.5603 57.8781 63.8615 57.7613C64.169 57.6383 64.5318 57.5768 64.9499 57.5768C65.2696 57.5768 65.5924 57.6168 65.9183 57.6967C66.2503 57.7705 66.5209 57.8781 66.7299 58.0195L66.3518 58.7205C66.1304 58.5729 65.8999 58.4715 65.66 58.4161C65.4202 58.3608 65.1805 58.3331 64.9407 58.3331C64.5533 58.3331 64.2643 58.3977 64.0737 58.5268C63.8831 58.6498 63.7878 58.8097 63.7878 59.0064C63.7878 59.1724 63.8431 59.3016 63.9538 59.3938C64.0706 59.4799 64.2182 59.5475 64.3965 59.5967C64.5809 59.6459 64.7839 59.6889 65.0052 59.7258C65.2266 59.7566 65.4479 59.7996 65.6693 59.8549C65.8906 59.9041 66.0905 59.9748 66.2688 60.0671C66.4532 60.1593 66.6008 60.2884 66.7115 60.4544C66.8283 60.6205 66.8867 60.8418 66.8867 61.1185C66.8867 61.4137 66.8007 61.6688 66.6285 61.884C66.4563 62.0992 66.2134 62.2683 65.8999 62.3913C65.5863 62.5081 65.2112 62.5665 64.7746 62.5665Z" fill="#C0C0C0"/>
<path d="M69.3952 62.5665C68.9894 62.5665 68.602 62.5112 68.2331 62.4005C67.8703 62.2899 67.5844 62.1546 67.3753 61.9947L67.7443 61.2938C67.9533 61.4352 68.2116 61.5551 68.519 61.6535C68.8264 61.7518 69.14 61.801 69.4598 61.801C69.8717 61.801 70.1669 61.7426 70.3452 61.6258C70.5297 61.509 70.6219 61.346 70.6219 61.137C70.6219 60.9832 70.5665 60.8633 70.4559 60.7773C70.3452 60.6912 70.1976 60.6266 70.0132 60.5836C69.8348 60.5405 69.635 60.5036 69.4137 60.4729C69.1923 60.436 68.9709 60.393 68.7496 60.3438C68.5282 60.2884 68.3253 60.2146 68.1409 60.1224C67.9564 60.024 67.8088 59.8918 67.6982 59.7258C67.5875 59.5537 67.5321 59.3262 67.5321 59.0433C67.5321 58.7482 67.6151 58.4899 67.7812 58.2686C67.9472 58.0472 68.1808 57.8781 68.4821 57.7613C68.7896 57.6383 69.1523 57.5768 69.5704 57.5768C69.8902 57.5768 70.213 57.6168 70.5389 57.6967C70.8709 57.7705 71.1415 57.8781 71.3505 58.0195L70.9724 58.7205C70.751 58.5729 70.5204 58.4715 70.2806 58.4161C70.0408 58.3608 69.801 58.3331 69.5612 58.3331C69.1739 58.3331 68.8849 58.3977 68.6943 58.5268C68.5036 58.6498 68.4083 58.8097 68.4083 59.0064C68.4083 59.1724 68.4637 59.3016 68.5743 59.3938C68.6912 59.4799 68.8387 59.5475 69.0171 59.5967C69.2015 59.6459 69.4044 59.6889 69.6258 59.7258C69.8471 59.7566 70.0685 59.7996 70.2898 59.8549C70.5112 59.9041 70.711 59.9748 70.8894 60.0671C71.0738 60.1593 71.2214 60.2884 71.3321 60.4544C71.4489 60.6205 71.5073 60.8418 71.5073 61.1185C71.5073 61.4137 71.4212 61.6688 71.2491 61.884C71.0769 62.0992 70.834 62.2683 70.5204 62.3913C70.2068 62.5081 69.8318 62.5665 69.3952 62.5665Z" fill="#C0C0C0"/>
</g>
<defs>
<filter id="filter0_i_465_8847" x="13.6523" y="10.1992" width="44.6909" height="39.9472" filterUnits="userSpaceOnUse" color-interpolation-filters="sRGB">
<feFlood flood-opacity="0" result="BackgroundImageFix"/>
<feBlend mode="normal" in="SourceGraphic" in2="BackgroundImageFix" result="shape"/>
<feColorMatrix in="SourceAlpha" type="matrix" values="0 0 0 0 0 0 0 0 0 0 0 0 0 0 0 0 0 0 127 0" result="hardAlpha"/>
<feOffset dy="0.613263"/>
<feGaussianBlur stdDeviation="0.459947"/>
<feComposite in2="hardAlpha" operator="arithmetic" k2="-1" k3="1"/>
<feColorMatrix type="matrix" values="0 0 0 0 1 0 0 0 0 1 0 0 0 0 1 0 0 0 0.6 0"/>
<feBlend mode="normal" in2="shape" result="effect1_innerShadow_465_8847"/>
</filter>
<linearGradient id="paint0_linear_465_8847" x1="53.8672" y1="49.5326" x2="18.1276" y2="10.2018" gradientUnits="userSpaceOnUse">
<stop stop-color="#A8A8A6"/>
<stop offset="0.45" stop-color="#999999"/>
<stop offset="0.67" stop-color="#F9F8F6"/>
<stop offset="0.82" stop-color="#D4D4D4"/>
<stop offset="1" stop-color="#7F7F7F"/>
</linearGradient>
<linearGradient id="paint1_linear_465_8847" x1="53.8672" y1="49.5322" x2="18.1276" y2="10.2015" gradientUnits="userSpaceOnUse">
<stop stop-color="#A8A8A6"/>
<stop offset="0.45" stop-color="#999999"/>
<stop offset="0.67" stop-color="#F9F8F6"/>
<stop offset="0.82" stop-color="#D4D4D4"/>
<stop offset="1" stop-color="#7F7F7F"/>
</linearGradient>
<linearGradient id="paint2_linear_465_8847" x1="53.8653" y1="49.5331" x2="18.1257" y2="10.2023" gradientUnits="userSpaceOnUse">
<stop stop-color="#A8A8A6"/>
<stop offset="0.45" stop-color="#999999"/>
<stop offset="0.67" stop-color="#F9F8F6"/>
<stop offset="0.82" stop-color="#D4D4D4"/>
<stop offset="1" stop-color="#7F7F7F"/>
</linearGradient>
<linearGradient id="paint3_linear_465_8847" x1="53.8653" y1="49.5334" x2="18.1257" y2="10.2027" gradientUnits="userSpaceOnUse">
<stop stop-color="#A8A8A6"/>
<stop offset="0.45" stop-color="#999999"/>
<stop offset="0.67" stop-color="#F9F8F6"/>
<stop offset="0.82" stop-color="#D4D4D4"/>
<stop offset="1" stop-color="#7F7F7F"/>
</linearGradient>
<linearGradient id="paint4_linear_465_8847" x1="35.9989" y1="10.1997" x2="35.9989" y2="43.7969" gradientUnits="userSpaceOnUse">
<stop stop-color="white" stop-opacity="0.53"/>
<stop offset="1" stop-color="white" stop-opacity="0"/>
</linearGradient>
<clipPath id="clip0_465_8847">
<rect width="72" height="72" fill="white"/>
</clipPath>
</defs>
</svg>
