<svg width="24" height="24" viewBox="0 0 24 24" fill="none" xmlns="http://www.w3.org/2000/svg">
<path d="M19.125 21.9375H4.875C3.9805 21.9355 3.12321 21.5793 2.4907 20.9468C1.8582 20.3143 1.50198 19.457 1.5 18.5625V6.9375C1.5 6.73859 1.57902 6.54782 1.71967 6.40717C1.86032 6.26652 2.05109 6.1875 2.25 6.1875C2.44891 6.1875 2.63968 6.26652 2.78033 6.40717C2.78416 6.41099 2.78793 6.41486 2.79167 6.41875C2.7954 6.41486 2.79918 6.41099 2.803 6.40717C2.94366 6.26652 3.13442 6.1875 3.33333 6.1875H19.125C20.0195 6.18948 20.8768 6.5457 21.5093 7.1782C22.1418 7.81071 22.498 8.668 22.5 9.5625V18.5625C22.498 19.457 22.1418 20.3143 21.5093 20.9468C20.8768 21.5793 20.0195 21.9355 19.125 21.9375Z" fill="white"/>
<path d="M2.25 7.68707C2.05109 7.68707 1.86032 7.60805 1.71967 7.4674C1.57902 7.32675 1.5 7.13598 1.5 6.93707C1.50301 6.13264 1.79582 5.35623 2.32477 4.75014C2.85372 4.14406 3.58337 3.74889 4.38 3.63707L15.75 2.09207C16.2189 2.03123 16.6954 2.07118 17.1477 2.20925C17.5999 2.34732 18.0175 2.58033 18.3724 2.89271C18.7274 3.20508 19.0116 3.58963 19.2061 4.02065C19.4005 4.45167 19.5007 4.91922 19.5 5.39207V6.18707C19.5 6.38598 19.421 6.57675 19.2803 6.7174C19.1397 6.85805 18.9489 6.93707 18.75 6.93707C18.5511 6.93707 18.3603 6.85805 18.2197 6.7174C18.079 6.57675 18 6.38598 18 6.18707V5.39207C18.0012 5.13088 17.9462 4.87247 17.8388 4.63438C17.7314 4.39628 17.5741 4.18405 17.3775 4.01207C17.1792 3.84129 16.9471 3.71427 16.6964 3.63931C16.4457 3.56435 16.182 3.54315 15.9225 3.57707L4.5825 5.12957C4.14506 5.18928 3.74395 5.40512 3.45313 5.73729C3.16231 6.06947 3.00137 6.49558 3 6.93707C3 7.13598 2.92098 7.32675 2.78033 7.4674C2.63968 7.60805 2.44891 7.68707 2.25 7.68707Z" fill="white"/>
<path d="M12.375 18.75C11.4108 18.75 10.4683 18.4641 9.6666 17.9284C8.86491 17.3927 8.24007 16.6314 7.87109 15.7406C7.50211 14.8498 7.40557 13.8696 7.59367 12.9239C7.78178 11.9783 8.24608 11.1096 8.92786 10.4279C9.60964 9.74608 10.4783 9.28178 11.4239 9.09367C12.3696 8.90557 13.3498 9.00211 14.2406 9.37109C15.1314 9.74007 15.8927 10.3649 16.4284 11.1666C16.9641 11.9683 17.25 12.9108 17.25 13.875C17.248 15.1673 16.7338 16.4061 15.82 17.32C14.9061 18.2338 13.6673 18.748 12.375 18.75ZM12.375 10.5C11.7075 10.5 11.055 10.6979 10.5 11.0688C9.94494 11.4396 9.51235 11.9667 9.25691 12.5834C9.00146 13.2001 8.93463 13.8787 9.06485 14.5334C9.19508 15.1881 9.51651 15.7895 9.98852 16.2615C10.4605 16.7335 11.0619 17.0549 11.7166 17.1852C12.3713 17.3154 13.0499 17.2485 13.6666 16.9931C14.2833 16.7377 14.8104 16.3051 15.1812 15.7501C15.5521 15.195 15.75 14.5425 15.75 13.875C15.748 12.9805 15.3918 12.1232 14.7593 11.4907C14.1268 10.8582 13.2695 10.502 12.375 10.5Z" fill="#080808"/>
<path d="M14.25 15H12C11.8011 15 11.6103 14.921 11.4697 14.7803C11.329 14.6397 11.25 14.4489 11.25 14.25V12C11.25 11.8011 11.329 11.6103 11.4697 11.4697C11.6103 11.329 11.8011 11.25 12 11.25C12.1989 11.25 12.3897 11.329 12.5303 11.4697C12.671 11.6103 12.75 11.8011 12.75 12V13.5H14.25C14.4489 13.5 14.6397 13.579 14.7803 13.7197C14.921 13.8603 15 14.0511 15 14.25C15 14.4489 14.921 14.6397 14.7803 14.7803C14.6397 14.921 14.4489 15 14.25 15Z" fill="#080808"/>
</svg>
